HIERARCHY
ROOT hip
{
  OFFSET 0.0 0.0 0.0
  CHANNELS 6 Xposition Yposition Zposition Zrotation Yrotation Xrotation
  JOINT abdomen
  {
    OFFSET 0.0 20.6881 -0.73152
    CHANNELS 3 Zrotation Xrotation Yrotation
    JOINT chest
    {
      OFFSET 0.0 11.7043 -0.48768
      CHANNELS 3 Zrotation Xrotation Yrotation
      JOINT neck
      {
        OFFSET 0.0 22.1894 -2.19456
        CHANNELS 3 Zrotation Xrotation Yrotation
        JOINT head
        {
          OFFSET -0.24384 7.07133 1.2192
          CHANNELS 3 Zrotation Xrotation Yrotation
          JOINT leftEye
          {
            OFFSET 4.14528 8.04674 8.04672
            CHANNELS 3 Zrotation Xrotation Yrotation
            End Site
            {
              OFFSET 1.0 0.0 0.0
            }
          }
          JOINT rightEye
          {
            OFFSET -3.6576 8.04674 8.04672
            CHANNELS 3 Zrotation Xrotation Yrotation
            End Site
            {
              OFFSET 1.0 0.0 0.0
            }
          }
        }
      }
      JOINT rCollar
      {
        OFFSET -2.68224 19.2634 -4.8768
        CHANNELS 3 Zrotation Xrotation Yrotation
        JOINT rShldr
        {
          OFFSET -8.77824 -1.95073 1.46304
          CHANNELS 3 Zrotation Xrotation Yrotation
          JOINT rForeArm
          {
            OFFSET -28.1742 -1.7115 0.48768
            CHANNELS 3 Zrotation Xrotation Yrotation
            JOINT rHand
            {
              OFFSET -22.5879 0.773209 7.07136
              CHANNELS 3 Zrotation Xrotation Yrotation
              JOINT rThumb1
              {
                OFFSET -1.2192 -0.487915 3.41376
                CHANNELS 3 Zrotation Xrotation Yrotation
                JOINT rThumb2
                {
                  OFFSET -3.37035 -0.52449 3.41376
                  CHANNELS 3 Zrotation Xrotation Yrotation
                  End Site
                  {
                    OFFSET -1.78271 -1.18214 1.43049
                  }
                }
              }
              JOINT rIndex1
              {
                OFFSET -7.75947 0.938293 5.60832
                CHANNELS 3 Zrotation Xrotation Yrotation
                JOINT rIndex2
                {
                  OFFSET -2.54057 -0.884171 1.56538
                  CHANNELS 3 Zrotation Xrotation Yrotation
                  End Site
                  {
                    OFFSET -1.62519 -0.234802 1.16502
                  }
                }
              }
              JOINT rMid1
              {
                OFFSET -8.24714 1.18213 3.41376
                CHANNELS 3 Zrotation Xrotation Yrotation
                JOINT rMid2
                {
                  OFFSET -3.10165 -0.590103 1.0647
                  CHANNELS 3 Zrotation Xrotation Yrotation
                  End Site
                  {
                    OFFSET -2.48547 -0.328903 0.83742
                  }
                }
              }
              JOINT rRing1
              {
                OFFSET -8.82822 0.546677 1.51678
                CHANNELS 3 Zrotation Xrotation Yrotation
                JOINT rRing2
                {
                  OFFSET -2.60934 -0.819778 -0.0198488
                  CHANNELS 3 Zrotation Xrotation Yrotation
                  End Site
                  {
                    OFFSET -2.33842 -0.294052 0.168128
                  }
                }
              }
              JOINT rPinky1
              {
                OFFSET -8.27202 -0.0477905 -0.4584
                CHANNELS 3 Zrotation Xrotation Yrotation
                JOINT rPinky2
                {
                  OFFSET -1.82734 -0.647385 -0.700984
                  CHANNELS 3 Zrotation Xrotation Yrotation
                  End Site
                  {
                    OFFSET -1.69225 -0.51767 -0.607171
                  }
                }
              }
            }
          }
        }
      }
      JOINT lCollar
      {
        OFFSET 2.68224 19.2634 -4.8768
        CHANNELS 3 Zrotation Xrotation Yrotation
        JOINT lShldr
        {
          OFFSET 8.77824 -1.95073 1.46304
          CHANNELS 3 Zrotation Xrotation Yrotation
          JOINT lForeArm
          {
            OFFSET 28.1742 -1.7115 0.48768
            CHANNELS 3 Zrotation Xrotation Yrotation
            JOINT lHand
            {
              OFFSET 22.5879 0.773209 7.07136
              CHANNELS 3 Zrotation Xrotation Yrotation
              JOINT lThumb1
              {
                OFFSET 1.2192 -0.487915 3.41376
                CHANNELS 3 Zrotation Xrotation Yrotation
                JOINT lThumb2
                {
                  OFFSET 3.37035 -0.52449 3.41376
                  CHANNELS 3 Zrotation Xrotation Yrotation
                  End Site
                  {
                    OFFSET 1.78271 -1.18214 1.43049
                  }
                }
              }
              JOINT lIndex1
              {
                OFFSET 7.75947 0.938293 5.60832
                CHANNELS 3 Zrotation Xrotation Yrotation
                JOINT lIndex2
                {
                  OFFSET 2.54057 -0.884171 1.56538
                  CHANNELS 3 Zrotation Xrotation Yrotation
                  End Site
                  {
                    OFFSET 1.62519 -0.234802 1.16502
                  }
                }
              }
              JOINT lMid1
              {
                OFFSET 8.24714 1.18213 3.41376
                CHANNELS 3 Zrotation Xrotation Yrotation
                JOINT lMid2
                {
                  OFFSET 3.10165 -0.590103 1.0647
                  CHANNELS 3 Zrotation Xrotation Yrotation
                  End Site
                  {
                    OFFSET 2.48547 -0.328903 0.83742
                  }
                }
              }
              JOINT lRing1
              {
                OFFSET 8.82822 0.546677 1.51678
                CHANNELS 3 Zrotation Xrotation Yrotation
                JOINT lRing2
                {
                  OFFSET 2.60934 -0.819778 -0.0198488
                  CHANNELS 3 Zrotation Xrotation Yrotation
                  End Site
                  {
                    OFFSET 2.33842 -0.294052 0.168128
                  }
                }
              }
              JOINT lPinky1
              {
                OFFSET 8.27202 -0.0477905 -0.4584
                CHANNELS 3 Zrotation Xrotation Yrotation
                JOINT lPinky2
                {
                  OFFSET 1.82734 -0.647385 -0.700984
                  CHANNELS 3 Zrotation Xrotation Yrotation
                  End Site
                  {
                    OFFSET 1.69225 -0.51767 -0.607171
                  }
                }
              }
            }
          }
        }
      }
    }
  }
  JOINT rButtock
  {
    OFFSET -8.77824 4.35084 1.2192
    CHANNELS 3 Zrotation Xrotation Yrotation
    JOINT rThigh
    {
      OFFSET 0.0 -1.70687 -2.19456
      CHANNELS 3 Zrotation Xrotation Yrotation
      JOINT rShin
      {
        OFFSET 0.0 -36.8199 0.73152
        CHANNELS 3 Zrotation Xrotation Yrotation
        JOINT rFoot
        {
          OFFSET 0.73152 -45.1104 -5.12064
          CHANNELS 3 Zrotation Xrotation Yrotation
          End Site
          {
            OFFSET -1.1221 -3.69964 12.103
          }
        }
      }
    }
  }
  JOINT lButtock
  {
    OFFSET 8.77824 4.35084 1.2192
    CHANNELS 3 Zrotation Xrotation Yrotation
    JOINT lThigh
    {
      OFFSET 0.0 -1.70687 -2.19456
      CHANNELS 3 Zrotation Xrotation Yrotation
      JOINT lShin
      {
        OFFSET 0.0 -36.8199 0.73152
        CHANNELS 3 Zrotation Xrotation Yrotation
        JOINT lFoot
        {
          OFFSET -0.73152 -45.1104 -5.12064
          CHANNELS 3 Zrotation Xrotation Yrotation
          End Site
          {
            OFFSET 1.1221 -3.69964 12.103
          }
        }
      }
    }
  }
}
MOTION
Frames: 7
Frame Time: 0.00833333
0.0 84.2966 0.0 -3.1085 4.3054 12.2741 7.24115 7.38469 4.94373 0.720125 -6.42281 1.52966 4.41782 -1.73565 -0.449419 -12.5737 -6.88626 -3.00587 -0.0 0.0 0.0 -0.0 0.0 0.0 -1.68599e-14 -3.81567e-13 1.53779e-14 75.6754 13.1038 5.81087 -10.4949 -4.44662 18.7354 -0.00758371 -2.52698 -0.355396 -3.69453e-11 -1.28077e-09 2.90425e-09 -6.46851e-11 -2.20884e-09 5.01776e-09 -3.69368e-11 -1.28077e-09 2.90425e-09 7.73091 5.47488 0.417314 -3.69419e-11 -1.28077e-09 2.90425e-09 2.90554 0.965183 0.102902 -3.6943e-11 -1.28077e-09 2.90425e-09 10.2786 0.731801 0.0259123 -3.69524e-11 -1.28077e-09 2.90426e-09 2.22167 -0.733487 -0.20892 -1.69098e-14 -3.81567e-13 1.50642e-14 -84.2788 20.3271 13.3562 11.0354 -4.79549 -19.7566 0.0379413 -5.4702 0.771122 -3.16263e-11 -1.86834e-09 -2.58572e-09 -5.33696e-11 -3.23056e-09 -4.46902e-09 -3.16268e-11 -1.86834e-09 -2.5857e-09 -7.73091 5.47488 -0.417314 -3.16239e-11 -1.86834e-09 -2.58572e-09 -2.90554 0.965183 -0.102902 -3.16263e-11 -1.86834e-09 -2.58572e-09 -10.2786 0.731801 -0.0259123 -3.16213e-11 -1.86834e-09 -2.58573e-09 -2.22167 -0.733487 0.20892 -2.03217e-16 0.0 -3.88251e-19 7.1617 2.55162 -0.487149 -0.0553763 15.4326 0.207451 -0.179079 4.8758 -17.8534 2.03217e-16 0.0 3.88251e-19 4.74915 -45.9667 0.534951 0.163873 27.3997 -0.261472 3.32076 -8.20891 11.9421
0.04697899999999999 84.1473 0.6510000000000105 -2.9957 4.2913 12.5634 7.09157 7.4544 4.77477 0.892184 -6.34005 1.48697 4.09223 -2.1527 -0.340453 -12.2794 -6.99237 -2.71432 -0.0 0.0 0.0 -0.0 0.0 0.0 -8.74815e-14 -2.90836e-13 1.14833e-14 74.9209 14.5443 7.09739 -10.8686 -4.68418 19.4448 -0.0146328 -3.45236 -0.485843 3.80336e-10 -1.42639e-09 2.91346e-09 6.54065e-10 -2.45932e-09 5.03503e-09 3.80341e-10 -1.42639e-09 2.91346e-09 7.73091 5.47488 0.417314 3.80335e-10 -1.42639e-09 2.91347e-09 2.90554 0.965183 0.102902 3.80339e-10 -1.42639e-09 2.91347e-09 10.2786 0.731801 0.0259123 3.8033e-10 -1.42639e-09 2.91347e-09 2.22167 -0.733487 -0.20892 -8.75324e-14 -2.90833e-13 1.11172e-14 -84.0905 18.6372 13.3326 10.6703 -4.55875 -19.0642 0.0276658 -4.61231 0.649627 3.3739e-10 -2.06251e-09 -2.62537e-09 5.82142e-10 -3.56642e-09 -4.53788e-09 3.3739e-10 -2.06251e-09 -2.62536e-09 -7.73091 5.47488 -0.417314 3.37394e-10 -2.06251e-09 -2.62537e-09 -2.90554 0.965183 -0.102902 3.37391e-10 -2.06251e-09 -2.62537e-09 -10.2786 0.731801 -0.0259123 3.37394e-10 -2.06251e-09 -2.62538e-09 -2.22167 -0.733487 0.20892 -2.03217e-16 0.0 -3.88251e-19 7.18948 2.92273 -0.0833062 -0.0543088 14.986 0.190593 -0.0127241 5.36049 -18.3392 2.03217e-16 0.0 3.88251e-19 4.55612 -46.6728 1.24976 0.156857 26.6386 -0.23497 3.38519 -8.31037 12.1074
0.10903700000000005 83.9823 1.3070000000000164 -2.8428 4.2594 12.8701 6.91755 7.50907 4.65412 1.02344 -6.29089 1.45521 3.84294 -2.49468 -0.231119 -12.0524 -7.13704 -2.44619 -0.0 0.0 0.0 -0.0 0.0 0.0 -1.30375e-13 -2.1946e-13 1.2921e-14 74.1929 15.882 8.29901 -11.2732 -4.95184 20.2117 -0.0236709 -4.38779 -0.617884 6.39119e-10 -1.44339e-09 2.70691e-09 1.10011e-09 -2.48838e-09 4.67866e-09 6.39122e-10 -1.44339e-09 2.70691e-09 7.73091 5.47488 0.417314 6.39115e-10 -1.44339e-09 2.70692e-09 2.90554 0.965183 0.102902 6.39122e-10 -1.44339e-09 2.70692e-09 10.2786 0.731801 0.0259123 6.39114e-10 -1.44339e-09 2.70692e-09 2.22167 -0.733487 -0.20892 -1.30439e-13 -2.19456e-13 1.25234e-14 -83.8414 16.8649 13.3598 10.2953 -4.32285 -18.3565 0.0160318 -3.61245 0.508377 5.45369e-10 -2.10278e-09 -2.5175e-09 9.3987e-10 -3.63603e-09 -4.35155e-09 5.45369e-10 -2.10278e-09 -2.51749e-09 -7.73091 5.47488 -0.417314 5.45373e-10 -2.10278e-09 -2.5175e-09 -2.90554 0.965183 -0.102902 5.45371e-10 -2.10278e-09 -2.5175e-09 -10.2786 0.731801 -0.0259123 5.45372e-10 -2.10278e-09 -2.51751e-09 -2.22167 -0.733487 0.20892 -2.03217e-16 0.0 -3.88251e-19 7.15826 3.23404 0.241774 -0.0540143 14.6709 0.177576 0.146251 5.80706 -18.7456 2.03217e-16 0.0 3.88251e-19 4.3544 -47.3342 1.93462 0.151953 26.0269 -0.212552 3.43564 -8.44203 12.1836
0.18076900000000007 83.8046 1.9710000000000036 -2.6729 4.197 13.1838 6.70822 7.53712 4.57994 1.10744 -6.28827 1.43313 3.69424 -2.74047 -0.113463 -11.9229 -7.35568 -2.1965 -0.0 0.0 0.0 -0.0 0.0 0.0 -1.32266e-13 -1.79754e-13 2.54825e-14 73.5149 17.1203 9.40736 -11.7157 -5.25391 21.0563 -0.0348034 -5.35556 -0.754799 6.69057e-10 -1.29827e-09 2.14769e-09 1.15259e-09 -2.23872e-09 3.71148e-09 6.6906e-10 -1.29827e-09 2.14769e-09 7.73091 5.47488 0.417314 6.69053e-10 -1.29827e-09 2.1477e-09 2.90554 0.965183 0.102902 6.6906e-10 -1.29827e-09 2.1477e-09 10.2786 0.731801 0.0259123 6.69053e-10 -1.29827e-09 2.1477e-09 2.22167 -0.733487 -0.20892 -1.32369e-13 -1.79748e-13 2.5081e-14 -83.5137 15.0006 13.4451 9.90176 -4.08335 -17.6158 0.00606051 -2.44542 0.343776 5.12194e-10 -1.9523e-09 -2.24322e-09 8.80989e-10 -3.37533e-09 -3.87723e-09 5.12193e-10 -1.95229e-09 -2.24321e-09 -7.73091 5.47488 -0.417314 5.12197e-10 -1.95229e-09 -2.24322e-09 -2.90554 0.965183 -0.102902 5.12194e-10 -1.9523e-09 -2.24322e-09 -10.2786 0.731801 -0.0259123 5.12197e-10 -1.9523e-09 -2.24323e-09 -2.22167 -0.733487 0.20892 -2.03217e-16 0.0 -3.88251e-19 7.06033 3.44577 0.464204 -0.0546132 14.5243 0.168901 0.285358 6.18995 -19.0796 2.03217e-16 0.0 3.88251e-19 4.12185 -47.9847 2.62318 0.148851 25.5608 -0.192856 3.45927 -8.60134 12.1211
0.26471300000000003 83.6219 2.6520000000000152 -2.4839 4.0989 13.4923 6.47318 7.55067 4.52305 1.16734 -6.3111 1.41398 3.59993 -2.94016 0.0189061 -11.845 -7.62522 -1.93739 -0.0 0.0 0.0 -0.0 0.0 0.0 -1.07739e-13 -1.5585e-13 4.39625e-14 72.8411 18.3152 10.4811 -12.188 -5.58374 21.9708 -0.0488972 -6.35537 -0.896781 5.57765e-10 -1.07054e-09 1.35796e-09 9.62386e-10 -1.84735e-09 2.34514e-09 5.57769e-10 -1.07053e-09 1.35795e-09 7.73091 5.47488 0.417314 5.57762e-10 -1.07053e-09 1.35796e-09 2.90554 0.965183 0.102902 5.57768e-10 -1.07053e-09 1.35796e-09 10.2786 0.731801 0.0259123 5.57761e-10 -1.07054e-09 1.35797e-09 2.22167 -0.733487 -0.20892 -1.079e-13 -1.55844e-13 4.35711e-14 -83.1234 13.0108 13.5627 9.48813 -3.83845 -16.8419 0.0010618 -1.13568 0.159346 3.27918e-10 -1.66531e-09 -1.87224e-09 5.6122e-10 -2.8782e-09 -3.23566e-09 3.27916e-10 -1.66531e-09 -1.87224e-09 -7.73091 5.47488 -0.417314 3.2792e-10 -1.66531e-09 -1.87225e-09 -2.90554 0.965183 -0.102902 3.27916e-10 -1.66531e-09 -1.87224e-09 -10.2786 0.731801 -0.0259123 3.27923e-10 -1.66531e-09 -1.87225e-09 -2.22167 -0.733487 0.20892 -2.03217e-16 0.0 -3.88251e-19 6.91901 3.57782 0.614964 -0.0556893 14.5147 0.163655 0.409797 6.52507 -19.3838 2.03217e-16 0.0 3.88251e-19 3.88428 -48.6387 3.35292 0.147124 25.2445 -0.175777 3.46228 -8.7755 11.958
0.35582600000000003 83.4399 3.3680000000000234 -2.2994 3.9232 13.7601 6.22898 7.56677 4.5095 1.20005 -6.34608 1.40561 3.53854 -3.10366 0.143291 -11.7834 -7.88343 -1.70078 -0.0 0.0 0.0 -0.0 0.0 0.0 -7.57241e-14 -1.31947e-13 5.92339e-14 72.1963 19.4226 11.4868 -12.6716 -5.93155 22.9174 -0.0657628 -7.33724 -1.03684 3.97812e-10 -7.7592e-10 5.54135e-10 6.88295e-10 -1.34048e-09 9.54562e-10 3.97818e-10 -7.7592e-10 5.54132e-10 7.73091 5.47488 0.417314 3.97811e-10 -7.75921e-10 5.54132e-10 2.90554 0.965183 0.102902 3.97815e-10 -7.75921e-10 5.54135e-10 10.2786 0.731801 0.0259123 3.97809e-10 -7.75922e-10 5.54147e-10 2.22167 -0.733487 -0.20892 -7.5935e-14 -1.31941e-13 5.8862e-14 -82.6805 10.9463 13.7194 9.07476 -3.59961 -16.0748 0.000706389 0.278452 -0.039429 1.05264e-10 -1.28407e-09 -1.39479e-09 1.76132e-10 -2.21842e-09 -2.41009e-09 1.05261e-10 -1.28407e-09 -1.39479e-09 -7.73091 5.47488 -0.417314 1.05265e-10 -1.28407e-09 -1.3948e-09 -2.90554 0.965183 -0.102902 1.0526e-10 -1.28407e-09 -1.39479e-09 -10.2786 0.731801 -0.0259123 1.0527e-10 -1.28407e-09 -1.3948e-09 -2.22167 -0.733487 0.20892 -2.03217e-16 0.0 -3.88251e-19 6.74172 3.70499 0.724219 -0.0568112 14.5822 0.161255 0.534552 6.86142 -19.6087 2.03217e-16 0.0 3.88251e-19 3.65933 -49.2112 4.01144 0.146622 25.0836 -0.163865 3.46632 -8.98039 11.777
0.454844 83.2611 4.124000000000024 -2.1221 3.6933 13.9894 5.99218 7.60248 4.56537 1.20251 -6.37989 1.41583 3.4884 -3.24087 0.236979 -11.7045 -8.06811 -1.51879 -0.0 0.0 0.0 -0.0 0.0 0.0 -5.51482e-14 -9.22388e-14 6.21699e-14 71.6112 20.4004 12.3881 -13.1496 -6.28832 23.8583 -0.0842366 -8.25124 -1.1678 2.81769e-10 -4.30164e-10 -4.73553e-11 4.89111e-10 -7.44278e-10 -8.53518e-11 2.81775e-10 -4.30165e-10 -4.73585e-11 7.73091 5.47488 0.417314 2.81768e-10 -4.30167e-10 -4.73585e-11 2.90554 0.965183 0.102902 2.81772e-10 -4.30167e-10 -4.73553e-11 10.2786 0.731801 0.0259123 2.81765e-10 -4.30168e-10 -4.73426e-11 2.22167 -0.733487 -0.20892 -5.53797e-14 -9.22345e-14 6.1822e-14 -82.1948 8.85812 13.9206 8.6833 -3.37882 -15.3545 0.00379457 1.75861 -0.247235 -4.30464e-11 -8.50802e-10 -8.01083e-10 -7.87084e-11 -1.46974e-09 -1.38376e-09 -4.30508e-11 -8.50798e-10 -8.01077e-10 -7.73091 5.47488 -0.417314 -4.30465e-11 -8.50801e-10 -8.01086e-10 -2.90554 0.965183 -0.102902 -4.30521e-11 -8.50801e-10 -8.01083e-10 -10.2786 0.731801 -0.0259123 -4.30399e-11 -8.508e-10 -8.01089e-10 -2.22167 -0.733487 0.20892 -2.03217e-16 0.0 -3.88251e-19 6.53482 3.90199 0.822207 -0.0575877 14.6671 0.161126 0.67423 7.24822 -19.705 2.03217e-16 0.0 3.88251e-19 3.45228 -49.6198 4.47679 0.147238 25.0834 -0.159696 3.49392 -9.23184 11.6612
